<mxfile host="app.diagrams.net" modified="2024-01-12T06:00:33.939Z" agent="Mozilla/5.0 (Windows NT 10.0; Win64; x64; rv:121.0) Gecko/20100101 Firefox/121.0" etag="LAwLmSjsaUWCGgHIpiba" version="22.1.18" type="device">
  <diagram id="2eEMTt-SrJGln4EIozcy" name="Page-1">
    <mxGraphModel dx="2074" dy="746" grid="1" gridSize="10" guides="1" tooltips="1" connect="1" arrows="1" fold="1" page="1" pageScale="1" pageWidth="827" pageHeight="1169" math="0" shadow="0">
      <root>
        <mxCell id="0" />
        <mxCell id="1" parent="0" />
        <mxCell id="7JNcJvrc1CYgE0FTUI6z-2" value="" style="endArrow=none;dashed=1;html=1;" parent="1" edge="1">
          <mxGeometry width="50" height="50" relative="1" as="geometry">
            <mxPoint x="240" y="600" as="sourcePoint" />
            <mxPoint x="240" y="120" as="targetPoint" />
          </mxGeometry>
        </mxCell>
        <mxCell id="7JNcJvrc1CYgE0FTUI6z-3" value="" style="endArrow=none;dashed=1;html=1;" parent="1" edge="1">
          <mxGeometry width="50" height="50" relative="1" as="geometry">
            <mxPoint x="560" y="600" as="sourcePoint" />
            <mxPoint x="560" y="120" as="targetPoint" />
          </mxGeometry>
        </mxCell>
        <mxCell id="7JNcJvrc1CYgE0FTUI6z-4" value="&lt;b&gt;Local Working Tree in the IDE (e.g. Eclipse)&lt;br&gt;&lt;/b&gt;" style="text;html=1;strokeColor=none;fillColor=none;align=center;verticalAlign=middle;whiteSpace=wrap;rounded=0;" parent="1" vertex="1">
          <mxGeometry x="30" y="40" width="180" height="60" as="geometry" />
        </mxCell>
        <mxCell id="7JNcJvrc1CYgE0FTUI6z-5" value="&lt;b&gt;Local Git Repository&lt;/b&gt;" style="text;html=1;strokeColor=none;fillColor=none;align=center;verticalAlign=middle;whiteSpace=wrap;rounded=0;" parent="1" vertex="1">
          <mxGeometry x="300" y="40" width="180" height="60" as="geometry" />
        </mxCell>
        <mxCell id="7JNcJvrc1CYgE0FTUI6z-6" value="&lt;b&gt;Remote Git Repository&lt;br&gt;&lt;/b&gt;" style="text;html=1;strokeColor=none;fillColor=none;align=center;verticalAlign=middle;whiteSpace=wrap;rounded=0;" parent="1" vertex="1">
          <mxGeometry x="600" y="40" width="180" height="60" as="geometry" />
        </mxCell>
        <mxCell id="7JNcJvrc1CYgE0FTUI6z-7" value="File 1" style="whiteSpace=wrap;html=1;aspect=fixed;" parent="1" vertex="1">
          <mxGeometry x="30" y="150" width="40" height="40" as="geometry" />
        </mxCell>
        <mxCell id="7JNcJvrc1CYgE0FTUI6z-9" value="..." style="whiteSpace=wrap;html=1;aspect=fixed;" parent="1" vertex="1">
          <mxGeometry x="30" y="220" width="40" height="40" as="geometry" />
        </mxCell>
        <mxCell id="7JNcJvrc1CYgE0FTUI6z-10" value="File N" style="whiteSpace=wrap;html=1;aspect=fixed;" parent="1" vertex="1">
          <mxGeometry x="30" y="290" width="40" height="40" as="geometry" />
        </mxCell>
        <mxCell id="7JNcJvrc1CYgE0FTUI6z-11" value="" style="shape=flexArrow;endArrow=classic;html=1;" parent="1" edge="1">
          <mxGeometry width="50" height="50" relative="1" as="geometry">
            <mxPoint x="650" y="230" as="sourcePoint" />
            <mxPoint x="150" y="230" as="targetPoint" />
          </mxGeometry>
        </mxCell>
        <mxCell id="7JNcJvrc1CYgE0FTUI6z-12" value="&lt;font style=&quot;font-size: 18px&quot;&gt;&lt;b&gt;git pull &lt;/b&gt;&lt;/font&gt;" style="edgeLabel;html=1;align=center;verticalAlign=middle;resizable=0;points=[];" parent="7JNcJvrc1CYgE0FTUI6z-11" vertex="1" connectable="0">
          <mxGeometry x="-0.0829" relative="1" as="geometry">
            <mxPoint as="offset" />
          </mxGeometry>
        </mxCell>
        <mxCell id="7JNcJvrc1CYgE0FTUI6z-15" value="" style="shape=flexArrow;endArrow=classic;html=1;" parent="1" edge="1">
          <mxGeometry width="50" height="50" relative="1" as="geometry">
            <mxPoint x="400" y="480" as="sourcePoint" />
            <mxPoint x="650" y="480" as="targetPoint" />
          </mxGeometry>
        </mxCell>
        <mxCell id="7JNcJvrc1CYgE0FTUI6z-16" value="&lt;font style=&quot;font-size: 18px&quot;&gt;&lt;b&gt;git push &lt;/b&gt;&lt;/font&gt;" style="edgeLabel;html=1;align=center;verticalAlign=middle;resizable=0;points=[];" parent="7JNcJvrc1CYgE0FTUI6z-15" vertex="1" connectable="0">
          <mxGeometry x="-0.0829" relative="1" as="geometry">
            <mxPoint as="offset" />
          </mxGeometry>
        </mxCell>
        <mxCell id="7JNcJvrc1CYgE0FTUI6z-17" value="" style="shape=flexArrow;endArrow=classic;html=1;" parent="1" edge="1">
          <mxGeometry width="50" height="50" relative="1" as="geometry">
            <mxPoint x="650" y="170" as="sourcePoint" />
            <mxPoint x="400" y="170" as="targetPoint" />
          </mxGeometry>
        </mxCell>
        <mxCell id="7JNcJvrc1CYgE0FTUI6z-18" value="&lt;font style=&quot;font-size: 18px&quot;&gt;&lt;b&gt;git fetch &lt;/b&gt;&lt;/font&gt;" style="edgeLabel;html=1;align=center;verticalAlign=middle;resizable=0;points=[];" parent="7JNcJvrc1CYgE0FTUI6z-17" vertex="1" connectable="0">
          <mxGeometry x="-0.0829" relative="1" as="geometry">
            <mxPoint as="offset" />
          </mxGeometry>
        </mxCell>
        <mxCell id="7JNcJvrc1CYgE0FTUI6z-19" value="" style="shape=flexArrow;endArrow=classic;html=1;" parent="1" edge="1">
          <mxGeometry width="50" height="50" relative="1" as="geometry">
            <mxPoint x="380" y="170" as="sourcePoint" />
            <mxPoint x="150" y="170" as="targetPoint" />
          </mxGeometry>
        </mxCell>
        <mxCell id="7JNcJvrc1CYgE0FTUI6z-20" value="&lt;font style=&quot;font-size: 18px&quot;&gt;&lt;b&gt;git rebase&lt;/b&gt;&lt;/font&gt;" style="edgeLabel;html=1;align=center;verticalAlign=middle;resizable=0;points=[];" parent="7JNcJvrc1CYgE0FTUI6z-19" vertex="1" connectable="0">
          <mxGeometry x="-0.0829" relative="1" as="geometry">
            <mxPoint as="offset" />
          </mxGeometry>
        </mxCell>
        <mxCell id="7JNcJvrc1CYgE0FTUI6z-21" value="" style="shape=flexArrow;endArrow=classic;html=1;" parent="1" edge="1">
          <mxGeometry width="50" height="50" relative="1" as="geometry">
            <mxPoint x="150" y="480" as="sourcePoint" />
            <mxPoint x="380" y="480" as="targetPoint" />
          </mxGeometry>
        </mxCell>
        <mxCell id="7JNcJvrc1CYgE0FTUI6z-22" value="&lt;font style=&quot;font-size: 18px&quot;&gt;&lt;b&gt;git commit&lt;/b&gt;&lt;/font&gt;" style="edgeLabel;html=1;align=center;verticalAlign=middle;resizable=0;points=[];" parent="7JNcJvrc1CYgE0FTUI6z-21" vertex="1" connectable="0">
          <mxGeometry x="-0.0829" relative="1" as="geometry">
            <mxPoint as="offset" />
          </mxGeometry>
        </mxCell>
        <mxCell id="7JNcJvrc1CYgE0FTUI6z-23" value="" style="endArrow=none;dashed=1;html=1;" parent="1" edge="1">
          <mxGeometry width="50" height="50" relative="1" as="geometry">
            <mxPoint x="20" y="380" as="sourcePoint" />
            <mxPoint x="240" y="380" as="targetPoint" />
          </mxGeometry>
        </mxCell>
        <mxCell id="7JNcJvrc1CYgE0FTUI6z-24" value="Staged changes:" style="text;html=1;strokeColor=none;fillColor=none;align=center;verticalAlign=middle;whiteSpace=wrap;rounded=0;" parent="1" vertex="1">
          <mxGeometry y="390" width="150" height="20" as="geometry" />
        </mxCell>
        <mxCell id="7JNcJvrc1CYgE0FTUI6z-26" value="Unstaged changes:" style="text;html=1;strokeColor=none;fillColor=none;align=center;verticalAlign=middle;whiteSpace=wrap;rounded=0;" parent="1" vertex="1">
          <mxGeometry y="350" width="150" height="20" as="geometry" />
        </mxCell>
        <mxCell id="7JNcJvrc1CYgE0FTUI6z-27" value="" style="shape=flexArrow;endArrow=classic;html=1;" parent="1" edge="1">
          <mxGeometry width="50" height="50" relative="1" as="geometry">
            <mxPoint x="180" y="340" as="sourcePoint" />
            <mxPoint x="180" y="450" as="targetPoint" />
          </mxGeometry>
        </mxCell>
        <mxCell id="7JNcJvrc1CYgE0FTUI6z-28" value="&lt;font style=&quot;font-size: 18px&quot;&gt;&lt;b&gt;git add&lt;br&gt;&lt;/b&gt;&lt;/font&gt;" style="edgeLabel;html=1;align=center;verticalAlign=middle;resizable=0;points=[];" parent="7JNcJvrc1CYgE0FTUI6z-27" vertex="1" connectable="0">
          <mxGeometry x="0.2667" y="-2" relative="1" as="geometry">
            <mxPoint as="offset" />
          </mxGeometry>
        </mxCell>
        <mxCell id="7JNcJvrc1CYgE0FTUI6z-30" value="" style="curved=1;endArrow=classic;html=1;strokeColor=#FF0000;" parent="1" edge="1">
          <mxGeometry width="50" height="50" relative="1" as="geometry">
            <mxPoint x="100" y="190" as="sourcePoint" />
            <mxPoint x="680" y="550" as="targetPoint" />
            <Array as="points">
              <mxPoint x="170" y="650" />
              <mxPoint x="380" y="550" />
            </Array>
          </mxGeometry>
        </mxCell>
        <mxCell id="7JNcJvrc1CYgE0FTUI6z-31" value="" style="curved=1;endArrow=classic;html=1;strokeColor=#FF0000;" parent="1" edge="1">
          <mxGeometry width="50" height="50" relative="1" as="geometry">
            <mxPoint x="690" y="200" as="sourcePoint" />
            <mxPoint x="100" y="150" as="targetPoint" />
            <Array as="points">
              <mxPoint x="390" y="50" />
              <mxPoint x="380" y="210" />
              <mxPoint x="430" y="370" />
            </Array>
          </mxGeometry>
        </mxCell>
        <mxCell id="U95tkqW0r9591NK7Fxld-1" value="&lt;h1&gt;Usage Flow:&lt;br&gt;&lt;/h1&gt;&lt;p&gt;git pull -r&lt;/p&gt;&lt;p&gt;...do local changes...&lt;br&gt;&lt;/p&gt;&lt;p&gt;git status&lt;/p&gt;&lt;p&gt;git add file1 file2 ...&lt;/p&gt;&lt;p&gt;git commit -m &quot;Your commit message&quot;&lt;/p&gt;&lt;p&gt;git push&lt;br&gt;&lt;/p&gt;" style="text;html=1;strokeColor=none;fillColor=none;spacing=5;spacingTop=-20;whiteSpace=wrap;overflow=hidden;rounded=0;" vertex="1" parent="1">
          <mxGeometry x="20" y="610" width="220" height="230" as="geometry" />
        </mxCell>
      </root>
    </mxGraphModel>
  </diagram>
</mxfile>
